PathFileType	4	(X/Y/Z)	/Users/itak/Documents/Research/Walk-IL/dataset/trc/00203_00008.trc
DataRate	CameraRate	NumFrames	NumMarkers	Units	OrigDataRate	OrigDataStartFrame	OrigNumFrames
100.000000	100.000000	4	55	mm	100.000000	320	512
Frame#	Time	RPSI			LPSI			L3			STRN			T10			C7			CLAV			RBAK			LBAK			LSHO			LUPA			LAEL			LAOL			LWTS			LWPS			LFRA			LIFD			LHPS			LHTS			RSHO			RUPA			RAEL			RAOL			RWTS			RWPS			RFRA			RIFD			RHTS			RHPS			RBHD			LFHD			RFHD			LBHD			LHIP			RHIP			RASI			LASI			LKNE			LTHI			LANK			LTIP			LTOE			LMT1			LMT5			LHEE			RKNE			RANK			RTIP			RTOE			RMT1			RMT5			RHEE			RTHI			*53			*54			
		X1	Y1	Z1	X2	Y2	Z2	X3	Y3	Z3	X4	Y4	Z4	X5	Y5	Z5	X6	Y6	Z6	X7	Y7	Z7	X8	Y8	Z8	X9	Y9	Z9	X10	Y10	Z10	X11	Y11	Z11	X12	Y12	Z12	X13	Y13	Z13	X14	Y14	Z14	X15	Y15	Z15	X16	Y16	Z16	X17	Y17	Z17	X18	Y18	Z18	X19	Y19	Z19	X20	Y20	Z20	X21	Y21	Z21	X22	Y22	Z22	X23	Y23	Z23	X24	Y24	Z24	X25	Y25	Z25	X26	Y26	Z26	X27	Y27	Z27	X28	Y28	Z28	X29	Y29	Z29	X30	Y30	Z30	X31	Y31	Z31	X32	Y32	Z32	X33	Y33	Z33	X34	Y34	Z34	X35	Y35	Z35	X36	Y36	Z36	X37	Y37	Z37	X38	Y38	Z38	X39	Y39	Z39	X40	Y40	Z40	X41	Y41	Z41	X42	Y42	Z42	X43	Y43	Z43	X44	Y44	Z44	X45	Y45	Z45	X46	Y46	Z46	X47	Y47	Z47	X48	Y48	Z48	X49	Y49	Z49	X50	Y50	Z50	X51	Y51	Z51	X52	Y52	Z52	X53	Y53	Z53	X54	Y54	Z54	X55	Y55	Z55	

321	3.2	43.99311447143555	1044.832275390625	82.107666015625	129.7382659912109	1049.034057617188	-6.328783988952637	80.80889892578125	1083.979370117188	38.22174453735352	252.5787353515625	1312.359497070312	220.3517303466797	56.62656784057617	1236.115844726562	-0.5046055316925049	98.50715637207031	1509.386962890625	27.3928279876709	234.0982818603516	1424.523315429688	189.2397003173828	-19.41169929504395	1329.20703125	59.98047637939453	171.8593902587891	1487.061889648438	-42.53919219970703	282.6584777832031	1480.403930664062	-34.88661956787109	321.4870910644531	1345.845336914062	-101.3225784301758	342.8112182617188	1128.064819335938	-88.38219451904297	257.0108642578125	1112.28955078125	-65.19521331787109	408.4089660644531	900.8414306640625	18.2230110168457	376.2380676269531	876.4500122070312	-66.24021911621094	364.3147583007812	1018.402893066406	-84.58396148681641	400.1782836914062	726.587158203125	53.83439636230469	390.1326599121094	807.5774536132812	-46.50725936889648	431.6976928710938	822.3523559570312	12.74039840698242	5.598839282989502	1494.448852539062	196.2631225585938	-57.15459060668945	1427.999755859375	228.5667877197266	-102.4828567504883	1137.491943359375	261.3390502929688	-23.83121109008789	1130.37255859375	201.1300659179688	21.92712020874023	936.1143188476562	387.455322265625	-54.43779373168945	902.9984741210938	353.8721618652344	-94.66974639892578	1067.011840820312	298.8983764648438	77.75929260253906	754.6873168945312	411.1677856445312	41.28555297851562	849.0689086914062	425.3979187011719	-24.50063133239746	827.3773193359375	384.9261169433594	72.12666320800781	1663.833740234375	105.1093215942383	264.7170715332031	1743.539794921875	161.5624847412109	159.6443786621094	1733.840209960938	238.0325927734375	175.0917816162109	1679.100463867188	18.85398101806641	291.391845703125	992.433349609375	-14.38410377502441	65.27466583251953	1006.477478027344	281.9447937011719	157.6745300292969	1043.32275390625	299.1818237304688	335.7325744628906	1041.7958984375	111.0258636474609	409.2160034179688	502.2308959960938	86.01570129394531	389.7521667480469	647.206787109375	55.38108062744141	123.5674819946289	211.6246490478516	-179.7203521728516	288.0282897949219	352.3697204589844	-45.57861709594727	226.6270141601562	73.03719329833984	-57.65827560424805	168.0375518798828	102.8714752197266	-44.47967529296875	196.3081970214844	126.8611450195312	-164.0736389160156	57.84446334838867	253.5208587646484	-148.6251983642578	183.4296722412109	510.0770263671875	274.2547607421875	180.9571990966797	34.47134780883789	170.6308288574219	219.6803283691406	391.8328247070312	263.7435913085938	341.3915710449219	48.3802490234375	328.7851867675781	343.2529907226562	42.69025039672852	260.2147216796875	220.3025817871094	42.29920196533203	280.7496337890625	207.8239898681641	32.35381317138672	90.52883911132812	133.5216522216797	777.3353881835938	328.6515197753906	nan	nan	nan	nan	nan	nan	
322	3.21	50.86780166625977	1045.42919921875	87.87745666503906	137.1903839111328	1049.705932617188	0.3658682107925415	87.35651397705078	1084.520141601562	44.54526138305664	257.5693359375	1313.10595703125	228.3447570800781	62.99406814575195	1236.791015625	6.136963844299316	104.8393707275391	1510.042602539062	34.24810409545898	239.5049285888672	1425.229370117188	196.9028167724609	-13.41167545318604	1330.023193359375	66.32097625732422	178.5196380615234	1487.670166015625	-35.23478698730469	289.1452331542969	1480.949584960938	-27.05750274658203	328.0955505371094	1346.61279296875	-93.86037445068359	349.2997436523438	1128.762451171875	-81.88375091552734	263.5394592285156	1112.80029296875	-58.84204864501953	416.4537048339844	902.8128662109375	26.44375610351562	384.4144287109375	877.2933349609375	-57.71809387207031	371.5286865234375	1019.080261230469	-77.45069122314453	409.5091857910156	728.7491455078125	64.11989593505859	398.70947265625	808.677734375	-37.19756317138672	440.2947387695312	824.429443359375	21.81893920898438	11.05001735687256	1495.552612304688	202.5591888427734	-51.88850021362305	1429.165283203125	234.8478851318359	-96.91066741943359	1138.5400390625	269.3805541992188	-18.47030448913574	1131.380615234375	208.9016265869141	30.57415962219238	939.4955444335938	396.4994812011719	-45.69438552856445	905.2938232421875	363.9754638671875	-88.14481353759766	1068.267578125	307.571044921875	88.64955902099609	758.9700317382812	421.4644165039062	51.14053726196289	853.0717163085938	435.0365295410156	-14.65324306488037	830.2637329101562	395.4459228515625	78.29668426513672	1664.785888671875	112.0294570922852	270.9715881347656	1743.97802734375	168.8392944335938	165.7298889160156	1734.549682617188	245.1371765136719	181.4570159912109	1679.7685546875	26.0065746307373	299.5287780761719	993.8583374023438	-5.395403385162354	68.75491333007812	1006.338012695312	287.8358459472656	160.5595397949219	1043.502075195312	306.5741882324219	341.043701171875	1042.468383789062	121.1951751708984	421.897705078125	505.6004028320312	104.9342727661133	401.3706359863281	649.8809204101562	70.9644775390625	146.5753326416016	203.4952239990234	-159.3302001953125	305.5896606445312	350.9848937988281	-25.62427139282227	251.1257171630859	71.47329711914062	-31.25362205505371	191.4859466552734	99.94129943847656	-20.17300987243652	221.5123748779297	121.623176574707	-139.8831787109375	79.22175598144531	244.5382080078125	-130.5353393554688	184.0646057128906	509.4833679199219	276.639892578125	181.0397644042969	34.50856018066406	170.6192321777344	220.2848663330078	391.3602905273438	265.4813537597656	341.5928649902344	47.25219345092773	329.1840209960938	343.2974243164062	42.28219604492188	260.424072265625	220.3045043945312	42.11341094970703	280.852294921875	208.1766967773438	32.30741500854492	90.57573699951172	135.4929351806641	776.497314453125	333.5334167480469	nan	nan	nan	nan	nan	nan	
323	3.22	57.66449356079102	1045.87939453125	93.54935455322266	144.6309356689453	1050.24755859375	7.032976150512695	93.93141937255859	1084.917602539062	50.84191131591797	262.5022277832031	1313.645263671875	236.3498992919922	69.35147094726562	1237.329833984375	12.71518230438232	111.1937789916992	1510.5654296875	41.10570907592773	244.857421875	1425.73193359375	204.5953674316406	-7.474929332733154	1330.71630859375	72.58026885986328	185.2238616943359	1488.112548828125	-27.91476821899414	295.6742858886719	1481.310791015625	-19.15818214416504	334.8160095214844	1347.218139648438	-86.29114532470703	355.9995422363281	1129.300415039062	-75.36043548583984	270.2698669433594	1113.123413085938	-52.56423950195312	424.61376953125	904.6341552734375	34.66289138793945	392.7444152832031	877.9835815429688	-49.1912727355957	378.9394836425781	1019.60009765625	-70.29568481445312	418.8812866210938	730.8463134765625	74.46005249023438	407.4053955078125	809.6267700195312	-27.86634063720703	448.9866943359375	826.3506469726562	30.91609001159668	16.46416854858398	1496.463745117188	208.8547210693359	-46.65244674682617	1430.125	241.1204833984375	-91.39833831787109	1139.395385742188	277.3708801269531	-13.2116813659668	1132.169311523438	216.5860595703125	39.11512756347656	942.6427612304688	405.36279296875	-37.06685638427734	907.4019775390625	373.9225463867188	-81.65726470947266	1069.33154296875	316.1800537109375	99.38329315185547	763.0353393554688	431.5040283203125	60.96751403808594	856.8656005859375	444.4670104980469	-4.925369262695312	832.967529296875	405.7764892578125	84.46995544433594	1665.573608398438	118.9165954589844	277.2243347167969	1744.2587890625	176.0318908691406	171.8246154785156	1735.154296875	252.1620025634766	187.7986450195312	1680.228637695312	33.0979118347168	307.5237121582031	995.1414794921875	3.611080884933472	72.27017974853516	1006.1220703125	293.6256103515625	163.4811859130859	1043.520874023438	313.8231201171875	346.3116455078125	1042.966796875	131.3004608154297	433.96240234375	509.0037231445312	123.8749389648438	412.5867919921875	652.5565795898438	86.548583984375	169.9241638183594	194.6521606445312	-138.2186889648438	322.9604187011719	349.3171997070312	-5.36400032043457	275.8941650390625	69.80000305175781	-4.178992748260498	215.2251281738281	96.68494415283203	4.857255458831787	247.0187225341797	116.0287780761719	-114.8846740722656	100.9050979614258	234.6254272460938	-111.7263717651367	184.7167510986328	508.8771362304688	279.031005859375	181.1213836669922	34.54353332519531	170.5991973876953	220.8788299560547	390.856689453125	267.2201843261719	341.7650756835938	46.23415756225586	329.5634155273438	343.3502502441406	41.92142105102539	260.6274108886719	220.3006134033203	41.92936706542969	280.9591979980469	208.6375885009766	32.21342468261719	90.64466857910156	137.46142578125	775.6438598632812	338.3030700683594	nan	nan	nan	nan	nan	nan	
324	3.23	64.35311126708984	1046.182373046875	99.11660766601562	152.0609893798828	1050.675415039062	13.67436695098877	100.5688934326172	1085.18603515625	57.12506484985352	267.3847961425781	1313.988891601562	244.3590240478516	75.71112060546875	1237.74072265625	19.23835182189941	117.5649642944336	1510.953247070312	47.96691131591797	250.1586608886719	1426.044555664062	212.31103515625	-1.598646998405457	1331.292114257812	78.76209259033203	191.9665069580078	1488.390869140625	-20.57954406738281	302.2440185546875	1481.492065429688	-11.19218158721924	341.6462097167969	1347.658325195312	-78.5994873046875	362.9266052246094	1129.686401367188	-68.76338958740234	277.2105712890625	1113.267333984375	-46.33310699462891	432.8429565429688	906.2764892578125	42.91147613525391	401.2299194335938	878.5335083007812	-40.6619987487793	386.5581665039062	1019.974060058594	-63.07852172851562	428.2666931152344	732.8190307617188	84.76997375488281	416.231201171875	810.435546875	-18.54803085327148	457.7447204589844	828.1029663085938	40.03255844116211	21.84562110900879	1497.18603515625	215.1541137695312	-41.44891357421875	1430.8818359375	247.3886566162109	-85.91916656494141	1140.057006835938	285.3104553222656	-8.039616584777832	1132.737548828125	224.1807098388672	47.5372200012207	945.5431518554688	414.0535583496094	-28.5683708190918	909.3067626953125	383.6897888183594	-75.20829010009766	1070.204956054688	324.7109985351562	109.9282073974609	766.8699951171875	441.3103942871094	70.71349334716797	860.431640625	453.70263671875	4.659008979797363	835.4718017578125	415.9139099121094	90.64364624023438	1666.19677734375	125.7860412597656	283.4803161621094	1744.393798828125	183.1465148925781	177.9306945800781	1735.65283203125	259.1214294433594	194.1191864013672	1680.4873046875	40.1405029296875	315.378173828125	996.2535400390625	12.6373291015625	75.810302734375	1005.844421386719	299.2793579101562	166.4675140380859	1043.411376953125	320.9302368164062	351.5724792480469	1043.350341796875	141.287109375	445.3614807128906	512.4116821289062	142.7756042480469	423.3263854980469	655.2044677734375	102.1087188720703	193.5970764160156	185.2311401367188	-116.3654937744141	340.1107177734375	347.3880310058594	15.17343902587891	300.8677673339844	68.14316558837891	23.55349731445312	239.2100372314453	93.23147583007812	30.57756042480469	272.7584838867188	110.1733245849609	-89.10804748535156	122.8681716918945	223.8778839111328	-92.16831970214844	185.4171752929688	508.2647705078125	281.4367370605469	181.1997833251953	34.57752227783203	170.5704803466797	221.4687652587891	390.3191223144531	268.9671630859375	341.8984985351562	45.35383987426758	329.9068908691406	343.4092407226562	41.6253662109375	260.8260192871094	220.2884063720703	41.74990844726562	281.0708618164062	209.1901092529297	32.08009719848633	90.73728179931641	139.4626922607422	774.7882690429688	342.9701232910156	nan	nan	nan	nan	nan	nan	
